<svg id="color" enable-background="new 0 0 24 24" height="512" viewBox="0 0 24 24" width="512" xmlns="http://www.w3.org/2000/svg"><g fill="#90a4ae"><path d="m5 20h-2c-.553 0-1-.448-1-1s.447-1 1-1h2c.553 0 1 .448 1 1s-.447 1-1 1z"/><path d="m21 20h-1.75c-.553 0-1-.448-1-1s.447-1 1-1h1.75c.553 0 1 .448 1 1s-.447 1-1 1z"/><path d="m13.75 20h-3.5c-.553 0-1-.448-1-1s.447-1 1-1h3.5c.553 0 1 .448 1 1s-.447 1-1 1z"/></g><path d="m6 19h-4c0 .552.447 1 1 1h2c.553 0 1-.448 1-1z" fill="#7d8f97"/><path d="m22 19h-3.75c0 .552.447 1 1 1h1.75c.553 0 1-.448 1-1z" fill="#7d8f97"/><path d="m14.75 19h-5.5c0 .552.447 1 1 1h3.5c.553 0 1-.448 1-1z" fill="#7d8f97"/><path d="m24 11c0 2.209-5.373 4-12 4s-12-1.791-12-4 5.373-4 12-4 12 1.791 12 4z" fill="#607d8b"/><path d="m11.936 11c-1.335 0-2.648-.248-3.931-.744-.602-.234-1.005-.872-1.005-1.589v-3.912c0-1.519 1.233-2.755 2.75-2.755h1.462c.848 0 1.538.691 1.538 1.541l.31-.089c.858-.413 1.85-.356 2.655.152.805.507 1.285 1.379 1.285 2.332v2.731c0 .734-.41 1.375-1.021 1.595-1.364.492-2.714.738-4.043.738z" fill="#90a4ae"/><path d="m7 7.363c-4.131.632-7 2.023-7 3.637 0 2.209 5.373 4 12 4v-4c-.022 0-.043 0-.064 0-1.335 0-2.648-.248-3.931-.744-.602-.234-1.005-.872-1.005-1.589z" fill="#546d79"/><path d="m11.212 2h-1.462c-1.517 0-2.75 1.236-2.75 2.755v2.607 1.304c0 .717.403 1.356 1.005 1.589 1.282.497 2.596.745 3.931.745h.064v-8.782c-.231-.138-.5-.218-.788-.218z" fill="#7d8f97"/><path d="m8.42 23c-.141 0-.282-.011-.423-.034l-1.833-.292c-1.254-.2-2.164-1.24-2.164-2.473v-2.024c0-.326.211-.615.522-.714 1.922-.613 4.035-.613 5.957 0 .31.099.521.388.521.714v2.317c0 .72-.319 1.405-.877 1.881-.477.406-1.08.625-1.703.625z" fill="#546e7a"/><path d="m7.5 17.003c-1.009 0-2.018.153-2.978.46-.311.099-.522.388-.522.714v2.024c0 1.233.91 2.272 2.164 2.473l1.336.213z" fill="#49606a"/><path d="m15.58 23c-.623 0-1.227-.219-1.703-.625-.558-.476-.877-1.161-.877-1.881v-2.317c0-.326.211-.615.521-.714 1.922-.613 4.035-.613 5.957 0 .311.099.522.388.522.714v2.024c0 1.233-.91 2.272-2.164 2.473l-1.833.292c-.141.023-.282.034-.423.034zm.305-.774h.01z" fill="#546e7a"/><path d="m16.5 17.003c-1.009 0-2.018.153-2.979.46-.31.099-.521.388-.521.714v2.317c0 .72.319 1.405.877 1.881.477.406 1.08.625 1.703.625.141 0 .282-.011.423-.034l.497-.079z" fill="#49606a"/></svg>