<?xml version="1.0"?>
<svg xmlns="http://www.w3.org/2000/svg" xmlns:xlink="http://www.w3.org/1999/xlink" version="1.1" id="Capa_1" x="0px" y="0px" viewBox="0 0 404.509 404.509" style="enable-background:new 0 0 404.509 404.509;" xml:space="preserve" width="512px" height="512px" class=""><g><g>
	<path style="fill:#011D18" d="M221.66,0.12H55.98c-11.359,0.044-20.556,9.241-20.6,20.6v273.6   c0.044,11.359,9.241,20.556,20.6,20.6h217.24V51.68C273.154,23.232,250.108,0.186,221.66,0.12L221.66,0.12z" data-original="#047BAF" class="" data-old_color="#047BAF"/>
	<path style="fill:#FFFFFF;" d="M254.34,12c-9.203-7.724-20.826-11.971-32.84-12H55.98c-11.359,0.044-20.556,9.241-20.6,20.6v273.2   c1.859,0.536,3.785,0.805,5.72,0.8l217.24-0.28V31.4C258.285,24.734,256.926,18.144,254.34,12L254.34,12z" data-original="#FFFFFF" class=""/>
	<path style="fill:#5BFFE2" d="M225.22,0.12h-172c-9.923,0.044-17.956,8.077-18,18v276.2c0.022-9.939,8.062-17.996,18-18.04h190   V18.32c0.066-9.985-7.974-18.133-17.959-18.2C225.247,0.12,225.234,0.12,225.22,0.12z" data-original="#1FC3F3" class="active-path" data-old_color="#1FC3F3"/>
</g><path style="fill:#FFFFFF;" d="M89.62,66.92h99.4c5.7,0,10.32,4.62,10.32,10.32v13.92c0,5.7-4.62,10.32-10.32,10.32h-99.4  c-5.7,0-10.32-4.62-10.32-10.32V77.24C79.3,71.54,83.92,66.92,89.62,66.92z" data-original="#FFFFFF" class=""/><g>
	<path style="fill:#011D18" d="M180.14,0.12h37.72v43.4l-18.88-21.68l-18.84,21.68L180.14,0.12z" data-original="#047BAF" class="" data-old_color="#047BAF"/>
	<path style="fill:#011D18" d="M161.14,192c-35.766,36.09-35.503,94.34,0.586,130.106c31.148,30.869,79.755,35.462,116.134,10.974   l65.4,66.88c5.877,5.97,15.471,6.077,21.48,0.24c5.97-5.877,6.077-15.471,0.24-21.48l-65.4-66.88   c29.581-41.311,20.073-98.781-21.239-128.362c-35.991-25.772-85.234-22.259-117.201,8.362L161.14,192z" data-original="#047BAF" class="" data-old_color="#047BAF"/>
</g><circle style="fill:#FFFFFF;" cx="225.38" cy="257.643" r="72.96" data-original="#FFFFFF" class=""/><path style="fill:#011D18" d="M211.94,204.64c2.522-0.567,5.026,1.017,5.593,3.539c0.537,2.386-0.855,4.784-3.193,5.501  c-24.303,6.167-39.006,30.869-32.838,55.172c1.97,7.762,5.957,14.865,11.558,20.588c1.8,1.856,1.756,4.82-0.1,6.62  s-4.82,1.756-6.62-0.1c-21.135-21.633-20.731-56.302,0.901-77.437C194.114,211.809,202.632,207.021,211.94,204.64z" data-original="#047BAF" class="" data-old_color="#047BAF"/></g> </svg>
